Coordinates
version=1
nRows=21
nColumns=22
inDegrees=yes

Units are S.I. units (second, meters, Newtons, ...)
If the header above contains a line with 'inDegrees', this indicates whether rotational values are in degrees (yes) or radians (no).

endheader
time	pelvis_tilt	pelvis_list	pelvis_rotation	pelvis_tx	pelvis_ty	pelvis_tz	hip_flexion_r	hip_adduction_r	hip_rotation_r	knee_angle_r	ankle_angle_r	subtalar_angle_r	hip_flexion_l	hip_adduction_l	hip_rotation_l	knee_angle_l	ankle_angle_l	subtalar_angle_l	lumbar_extension	lumbar_bending	lumbar_rotation
      2.49000000	      8.96311033	      4.85879433	    -44.03297235	     -0.00640976	      0.89194741	     -0.09673115	     13.94709129	     -7.17942498	      4.02623602	    -71.95696585	      9.66067788	    -11.38821490	      9.85562605	      6.84692678	     -5.84941487	    -23.36342519	     11.66199776	     -0.49405017	     -9.80884322	    -10.09427503	      6.10633234
      2.50000000	      8.90919259	      4.44760357	    -44.46808510	      0.00034711	      0.89377122	     -0.09129150	     15.22742028	     -7.02004501	      3.17120917	    -71.92274004	     10.48793856	    -12.39896901	      8.60717769	      6.59383563	     -6.11611361	    -22.72672495	     11.90554982	     -0.68279074	    -10.16638884	     -9.66818966	      5.56935543
      2.51000000	      8.88921581	      3.99269739	    -44.85971205	      0.00710740	      0.89552034	     -0.08582598	     16.32697883	     -6.90503706	      2.21475664	    -71.58657669	     11.24879499	    -13.20549903	      7.29528007	      6.34020490	     -6.40021223	    -22.09149619	     12.20671934	     -0.84670695	    -10.59317188	     -9.22535537	      4.97651105
      2.52000000	      8.89776354	      3.51058931	    -45.20503332	      0.01387900	      0.89716062	     -0.08032360	     17.25942726	     -6.85003601	      1.15401383	    -70.96712359	     11.97778211	    -13.88524203	      5.94173809	      6.09237274	     -6.69561285	    -21.46516550	     12.45492708	     -1.00024227	    -11.06495653	     -8.78336305	      4.35552314
      2.53000000	      8.90067665	      3.03766516	    -45.51259610	      0.02062560	      0.89857470	     -0.07482176	     18.09569688	     -6.83835241	      0.03317185	    -70.10007440	     12.68808267	    -14.61453812	      4.61227333	      5.85560065	     -6.96470116	    -20.86095417	     12.77072495	     -1.12858558	    -11.52968274	     -8.34380570	      3.72410535
      2.54000000	      8.89175879	      2.55362041	    -45.75569654	      0.02737517	      0.89977995	     -0.06933048	     18.81452684	     -6.86913484	     -1.19210362	    -68.99375339	     13.28926512	    -14.99637106	      3.32147254	      5.60129493	     -7.20273401	    -20.32893793	     13.12926551	     -1.19737070	    -11.99828602	     -7.88182564	      3.06146229
      2.55000000	      8.93664348	      2.09702757	    -46.01985016	      0.03401928	      0.90075868	     -0.06375546	     19.43242008	     -6.97766245	     -2.39418070	    -67.69391249	     13.95599597	    -15.86756170	      2.04319228	      5.39438907	     -7.55745082	    -19.85324055	     13.44463417	     -1.30287234	    -12.49070058	     -7.50214146	      2.41550654
      2.56000000	      8.93253789	      1.65771641	    -46.25383208	      0.04061374	      0.90144657	     -0.05814981	     19.99952684	     -7.07722092	     -3.61939671	    -66.19000448	     14.55953258	    -16.45618871	      0.85531486	      5.16595149	     -7.83420460	    -19.45204719	     13.85830818	     -1.34443094	    -12.92702491	     -7.09827476	      1.77324899
      2.57000000	      8.91677937	      1.23528932	    -46.48298160	      0.04713799	      0.90187827	     -0.05248046	     20.49842629	     -7.19294837	     -4.84766606	    -64.50323464	     15.11788583	    -16.96083547	     -0.26268650	      4.93541039	     -8.11234119	    -19.14266521	     14.31456785	     -1.36602471	    -13.33801312	     -6.70690870	      1.15090701
      2.58000000	      8.88104863	      0.83057887	    -46.70860133	      0.05358611	      0.90205913	     -0.04673400	     20.93696975	     -7.31493669	     -6.08316195	    -62.64392836	     15.59828114	    -17.28773328	     -1.30204984	      4.69616810	     -8.38863034	    -18.93155655	     14.80446153	     -1.37680923	    -13.71633264	     -6.32230802	      0.55978472
      2.59000000	      8.79258510	      0.45762771	    -46.95602878	      0.05992028	      0.90194440	     -0.04085968	     21.35618499	     -7.39680863	     -7.28018304	    -60.62042334	     16.05534054	    -17.48748424	     -2.24497143	      4.44080596	     -8.62168736	    -18.78958665	     15.37665911	     -1.38283558	    -14.01414971	     -5.93680322	      0.04053981
      2.60000000	      8.73962190	      0.09458545	    -47.23385793	      0.06613403	      0.90167236	     -0.03483764	     21.67384927	     -7.50374804	     -8.45457820	    -58.44601271	     16.49389473	    -17.73706279	     -3.18996658	      4.21890542	     -8.89604984	    -18.68662474	     15.88974422	     -1.41643939	    -14.33019115	     -5.60978328	     -0.40283798
      2.61000000	      8.60620253	     -0.23742286	    -47.52368669	      0.07219484	      0.90111094	     -0.02868011	     21.99142465	     -7.52807662	     -9.59484275	    -56.12029080	     16.82993580	    -17.79123625	     -4.01856831	      3.95512526	     -9.13156603	    -18.65314719	     16.51048151	     -1.45715381	    -14.54982702	     -5.25673357	     -0.81039485
      2.62000000	      8.49442733	     -0.57820333	    -47.82815104	      0.07814112	      0.90045122	     -0.02235273	     22.18740813	     -7.54622850	    -10.75658053	    -53.64226490	     17.10292378	    -17.75596522	     -4.87454268	      3.70682998	     -9.36098982	    -18.62313394	     17.08416859	     -1.54046643	    -14.78824852	     -4.93519118	     -1.12243228
      2.63000000	      8.34654403	     -0.91328989	    -48.13469949	      0.08394381	      0.89962429	     -0.01586926	     22.31518729	     -7.49507064	    -11.92146994	    -51.01485363	     17.28089084	    -17.58569560	     -5.68481186	      3.42839706	     -9.59881808	    -18.62986286	     17.71045825	     -1.64007290	    -14.99010420	     -4.60139080	     -1.43398112
      2.64000000	      8.22623972	     -1.29222850	    -48.43522088	      0.08967231	      0.89879524	     -0.00918883	     22.26664785	     -7.42544909	    -13.19919107	    -48.23579397	     17.36569595	    -17.20989763	     -6.57235734	      3.14717957	     -9.78918760	    -18.61343199	     18.28629928	     -1.78110102	    -15.24007021	     -4.27813741	     -1.64239284
      2.65000000	      8.10720795	     -1.69531420	    -48.71942518	      0.09532666	      0.89792395	     -0.00233525	     22.07747025	     -7.29630449	    -14.54208065	    -45.30958923	     17.40099607	    -16.56603367	     -7.49015676	      2.84697472	     -9.97186892	    -18.59259368	     18.84760744	     -1.93510249	    -15.50284540	     -3.94514348	     -1.87414703
      2.66000000	      7.98222337	     -2.12791469	    -48.97386340	      0.10094526	      0.89701810	      0.00467792	     21.74986958	     -7.11689323	    -16.03105626	    -42.26356747	     17.33966128	    -15.76062336	     -8.42031570	      2.51002629	    -10.16038659	    -18.60447116	     19.41032920	     -2.07000655	    -15.77705674	     -3.59176104	     -2.07615796
      2.67000000	      7.86438476	     -2.59124695	    -49.19445613	      0.10655126	      0.89610916	      0.01185987	     21.27856739	     -6.88366520	    -17.66480268	    -39.12121567	     17.21553880	    -14.77058493	     -9.38679569	      2.14590545	    -10.34998766	    -18.62544949	     19.93549753	     -2.17508262	    -16.07101220	     -3.22378033	     -2.27256434
      2.68000000	      7.75096910	     -3.07964558	    -49.37805246	      0.11215191	      0.89519338	      0.01921978	     20.68623240	     -6.58829742	    -19.44482294	    -35.92476446	     17.03475044	    -13.60202332	    -10.38111411	      1.75121997	    -10.54517914	    -18.66167144	     20.41571795	     -2.22834490	    -16.37653299	     -2.84442811	     -2.47257267
      2.69000000	      7.64719961	     -3.58791590	    -49.51776241	      0.11774695	      0.89427675	      0.02676188	     19.99489909	     -6.22539579	    -21.34542557	    -32.72383727	     16.81594812	    -12.34184574	    -11.41035416	      1.33010512	    -10.73413269	    -18.69675736	     20.84784790	     -2.21368632	    -16.69279595	     -2.46194982	     -2.68962380
